# Blender 5.1.2
# www.blender.org
mtllib sphere_low.mtl
o Sphere
v 0.000000 1.000000 0.000000
v 0.000000 0.866025 -0.500000
v 0.000000 0.500000 -0.866025
v 0.000000 0.000000 -1.000000
v 0.000000 -0.500000 -0.866025
v 0.000000 -0.866025 -0.500000
v 0.000000 -1.000000 0.000000
v 0.433013 0.866025 -0.250000
v 0.750000 0.500000 -0.433013
v 0.866025 0.000000 -0.500000
v 0.750000 -0.500000 -0.433013
v 0.433013 -0.866025 -0.250000
v 0.433013 0.866025 0.250000
v 0.750000 0.500000 0.433013
v 0.866025 0.000000 0.500000
v 0.750000 -0.500000 0.433013
v 0.433013 -0.866025 0.250000
v -0.000000 0.866025 0.500000
v -0.000000 0.500000 0.866025
v -0.000000 0.000000 1.000000
v -0.000000 -0.500000 0.866025
v -0.000000 -0.866025 0.500000
v -0.433013 0.866025 0.250000
v -0.750000 0.500000 0.433013
v -0.866026 0.000000 0.500000
v -0.750000 -0.500000 0.433013
v -0.433013 -0.866025 0.250000
v -0.433013 0.866025 -0.250000
v -0.750000 0.500000 -0.433013
v -0.866025 0.000000 -0.500000
v -0.750000 -0.500000 -0.433013
v -0.433013 -0.866025 -0.250000
vn 0.3780 -0.6547 -0.6547
vn 0.4871 0.2260 -0.8436
vn 0.1478 0.9553 -0.2560
vn 0.1478 -0.9553 -0.2560
vn 0.4871 -0.2260 -0.8436
vn 0.3780 0.6547 -0.6547
vn 0.7559 -0.6547 -0.0000
vn 0.9741 0.2260 -0.0000
vn 0.2956 0.9553 -0.0000
vn 0.2956 -0.9553 -0.0000
vn 0.9741 -0.2260 -0.0000
vn 0.7559 0.6547 -0.0000
vn 0.4871 0.2260 0.8436
vn 0.1478 0.9553 0.2560
vn 0.1478 -0.9553 0.2560
vn 0.4871 -0.2260 0.8436
vn 0.3780 0.6547 0.6547
vn 0.3780 -0.6547 0.6547
vn -0.1478 0.9553 0.2560
vn -0.1478 -0.9553 0.2560
vn -0.4871 -0.2260 0.8436
vn -0.3780 0.6547 0.6547
vn -0.3780 -0.6547 0.6547
vn -0.4871 0.2260 0.8436
vn -0.2956 -0.9553 -0.0000
vn -0.9741 -0.2260 -0.0000
vn -0.7559 0.6547 -0.0000
vn -0.7559 -0.6547 -0.0000
vn -0.9741 0.2260 -0.0000
vn -0.2956 0.9553 -0.0000
vn -0.1478 -0.9553 -0.2560
vn -0.4871 -0.2260 -0.8436
vn -0.3780 0.6547 -0.6547
vn -0.3780 -0.6547 -0.6547
vn -0.4871 0.2260 -0.8436
vn -0.1478 0.9553 -0.2560
vt 0.666667 0.166667
vt 0.666667 0.333333
vt 0.500000 0.333333
vt 0.500000 0.166667
vt 0.666667 0.500000
vt 0.666667 0.666667
vt 0.500000 0.666667
vt 0.500000 0.500000
vt 0.666667 0.833333
vt 0.583333 1.000000
vt 0.500000 0.833333
vt 0.583333 0.000000
vt 0.333333 0.333333
vt 0.333333 0.166667
vt 0.333333 0.666667
vt 0.333333 0.500000
vt 0.416667 1.000000
vt 0.333333 0.833333
vt 0.416667 0.000000
vt 0.166667 0.666667
vt 0.166667 0.500000
vt 0.250000 1.000000
vt 0.166667 0.833333
vt 0.250000 0.000000
vt 0.166667 0.166667
vt 0.166667 0.333333
vt 0.083333 1.000000
vt 0.000000 0.833333
vt 0.083333 0.000000
vt 0.000000 0.166667
vt 0.000000 0.500000
vt 0.000000 0.333333
vt 0.000000 0.666667
vt 0.916667 0.000000
vt 1.000000 0.166667
vt 0.833333 0.166667
vt 1.000000 0.333333
vt 1.000000 0.500000
vt 0.833333 0.500000
vt 0.833333 0.333333
vt 1.000000 0.666667
vt 1.000000 0.833333
vt 0.833333 0.833333
vt 0.833333 0.666667
vt 0.916667 1.000000
vt 0.750000 0.000000
vt 0.750000 1.000000
s 0
f 6/1/1 5/2/1 11/3/1 12/4/1
f 4/5/2 3/6/2 9/7/2 10/8/2
f 2/9/3 1/10/3 8/11/3
f 7/12/4 6/1/4 12/4/4
f 5/2/5 4/5/5 10/8/5 11/3/5
f 3/6/6 2/9/6 8/11/6 9/7/6
f 12/4/7 11/3/7 16/13/7 17/14/7
f 10/8/8 9/7/8 14/15/8 15/16/8
f 8/11/9 1/17/9 13/18/9
f 7/19/10 12/4/10 17/14/10
f 11/3/11 10/8/11 15/16/11 16/13/11
f 9/7/12 8/11/12 13/18/12 14/15/12
f 15/16/13 14/15/13 19/20/13 20/21/13
f 13/18/14 1/22/14 18/23/14
f 7/24/15 17/14/15 22/25/15
f 16/13/16 15/16/16 20/21/16 21/26/16
f 14/15/17 13/18/17 18/23/17 19/20/17
f 17/14/18 16/13/18 21/26/18 22/25/18
f 18/23/19 1/27/19 23/28/19
f 7/29/20 22/25/20 27/30/20
f 21/26/21 20/21/21 25/31/21 26/32/21
f 19/20/22 18/23/22 23/28/22 24/33/22
f 22/25/23 21/26/23 26/32/23 27/30/23
f 20/21/24 19/20/24 24/33/24 25/31/24
f 7/34/25 27/35/25 32/36/25
f 26/37/26 25/38/26 30/39/26 31/40/26
f 24/41/27 23/42/27 28/43/27 29/44/27
f 27/35/28 26/37/28 31/40/28 32/36/28
f 25/38/29 24/41/29 29/44/29 30/39/29
f 23/42/30 1/45/30 28/43/30
f 7/46/31 32/36/31 6/1/31
f 31/40/32 30/39/32 4/5/32 5/2/32
f 29/44/33 28/43/33 2/9/33 3/6/33
f 32/36/34 31/40/34 5/2/34 6/1/34
f 30/39/35 29/44/35 3/6/35 4/5/35
f 28/43/36 1/47/36 2/9/36
